<svg fill="#fff" id="Rosette_Inner" data-name="Rosette Inner" xmlns="http://www.w3.org/2000/svg" width="50.495" height="49" viewBox="0 0 50.495 49">
  <path id="Rosette_Inner-2" data-name="Rosette Inner" d="M81.479,51.155a18.122,18.122,0,0,0-36.08-.15A18.107,18.107,0,0,0,63.325,82.181a18.07,18.07,0,0,0,7.149,1.5h.012A18.118,18.118,0,0,0,81.479,51.155M63.439,40.189a12.627,12.627,0,0,1,11.667,7.832A17.93,17.93,0,0,0,53.218,60.161a12.582,12.582,0,0,1,10.22-19.972m3.733,19.017a12.536,12.536,0,0,1,1.6,5,12.4,12.4,0,0,1-10.8-.059,12.368,12.368,0,0,1,5.423-9.008,12.654,12.654,0,0,1,3.779,4.066M45.32,71.816a12.577,12.577,0,0,1,.764-13.793A18.039,18.039,0,0,0,67.877,70.359,12.6,12.6,0,0,1,45.32,71.816m36.086.044a12.6,12.6,0,0,1-10.932,6.3c-.4,0-.8-.037-1.193-.077a17.972,17.972,0,0,0,.046-25.08c.387-.037.776-.077,1.168-.077A12.617,12.617,0,0,1,81.406,71.86" transform="translate(-38.113 -34.677)"/>
</svg>
